<svg width="24" height="25" viewBox="0 0 24 25" fill="none" xmlns="http://www.w3.org/2000/svg">
<path d="M21.6478 16.625C21.7469 16.7969 21.7738 17.0011 21.7226 17.1927C21.6715 17.3844 21.5465 17.5481 21.375 17.6478L12.375 22.8978C12.2603 22.9647 12.1299 22.9999 11.9972 22.9999C11.8644 22.9999 11.7341 22.9647 11.6194 22.8978L2.61938 17.6478C2.45034 17.5462 2.32811 17.3822 2.27916 17.1911C2.2302 17.0001 2.25846 16.7975 2.35781 16.6271C2.45717 16.4568 2.61962 16.3324 2.81 16.2809C3.00037 16.2295 3.20336 16.2551 3.375 16.3522L12 21.3819L20.625 16.3522C20.7969 16.2531 21.0011 16.2262 21.1927 16.2774C21.3844 16.3285 21.5481 16.4535 21.6478 16.625ZM20.625 11.8522L12 16.8819L3.375 11.8522C3.20423 11.7672 3.00748 11.7504 2.82479 11.8053C2.6421 11.8603 2.4872 11.9827 2.39163 12.1478C2.29606 12.3129 2.26699 12.5082 2.31035 12.694C2.3537 12.8798 2.46622 13.0421 2.625 13.1478L11.625 18.3978C11.7397 18.4647 11.8701 18.4999 12.0028 18.4999C12.1356 18.4999 12.2659 18.4647 12.3806 18.3978L21.3806 13.1478C21.4671 13.0989 21.5429 13.0333 21.6038 12.9549C21.6647 12.8764 21.7094 12.7866 21.7353 12.6907C21.7612 12.5949 21.7679 12.4948 21.7548 12.3963C21.7417 12.2979 21.7092 12.203 21.6592 12.1172C21.6091 12.0314 21.5426 11.9564 21.4633 11.8966C21.384 11.8367 21.2937 11.7932 21.1975 11.7685C21.1013 11.7439 21.0011 11.7386 20.9028 11.7529C20.8046 11.7673 20.7101 11.801 20.625 11.8522ZM2.25 8C2.2503 7.86864 2.2851 7.73966 2.35091 7.62597C2.41672 7.51228 2.51124 7.41787 2.625 7.35219L11.625 2.10219C11.7397 2.03531 11.8701 2.00007 12.0028 2.00007C12.1356 2.00007 12.2659 2.03531 12.3806 2.10219L21.3806 7.35219C21.4938 7.41824 21.5878 7.51281 21.6531 7.62647C21.7183 7.74014 21.7527 7.86892 21.7527 8C21.7527 8.13108 21.7183 8.25986 21.6531 8.37353C21.5878 8.48719 21.4938 8.58176 21.3806 8.64781L12.3806 13.8978C12.2659 13.9647 12.1356 13.9999 12.0028 13.9999C11.8701 13.9999 11.7397 13.9647 11.625 13.8978L2.625 8.64781C2.51124 8.58213 2.41672 8.48772 2.35091 8.37403C2.2851 8.26034 2.2503 8.13136 2.25 8ZM4.48875 8L12 12.3819L19.5112 8L12 3.61812L4.48875 8Z" fill="#1D1A1C"/>
</svg>
